<svg xmlns="http://www.w3.org/2000/svg" viewBox="0 0 680 500" role="img" aria-labelledby="title desc">
<title id="title">One access layer across existing legal data repositories</title><desc id="desc">FileFlex connects legal users with file servers, NAS, SharePoint, cloud storage and multiple offices without moving the data.</desc>
<rect width="680" height="500" fill="#f3f7f8"/><g font-family="Arial,sans-serif" text-anchor="middle"><text x="340" y="55" fill="#132d42" font-size="18" font-weight="700">ONE ACCESS LAYER</text><text x="340" y="80" fill="#536b7b" font-size="13">Legal data remains where it is</text></g>
<g fill="none" stroke="#9bb0bd" stroke-width="3"><path d="M340 215 112 142M340 215 242 380M340 215 438 380M340 215 568 142M340 215V105"/></g>
<rect x="207" y="155" width="266" height="120" rx="8" fill="#082b49"/><path d="M250 215h-22m202 0h22M340 155v-18" stroke="#e8590a" stroke-width="4"/><g font-family="Arial,sans-serif" text-anchor="middle"><text x="340" y="203" fill="#fff" font-size="23" font-weight="700">FileFlex Enterprise</text><text x="340" y="229" fill="#d9e8ee" font-size="14">Zero Trust Data Access</text><text x="340" y="251" fill="#d9e8ee" font-size="12">Policy · Governance · Visibility</text></g>
<g fill="#fff" stroke="#d9e3e8" stroke-width="2"><rect x="35" y="95" width="154" height="94" rx="7"/><rect x="491" y="95" width="154" height="94" rx="7"/><rect x="165" y="344" width="154" height="94" rx="7"/><rect x="361" y="344" width="154" height="94" rx="7"/><rect x="263" y="21" width="154" height="94" rx="7"/></g>
<g fill="none" stroke="#e8590a" stroke-width="3" stroke-linecap="round" stroke-linejoin="round"><path d="M78 145h68v-27H78zm10-18h3m10 0h3m10 0h3m10 0h3M535 124h65v43h-65zM569 124v43M202 380h80v28h-80zM210 380v-13h64v13M402 368h72v44h-72zM285 58h110v36H285zM300 94v8h80v-8"/></g>
<g font-family="Arial,sans-serif" text-anchor="middle" fill="#132d42" font-size="14" font-weight="700"><text x="112" y="176">File servers</text><text x="568" y="176">SharePoint</text><text x="242" y="425">NAS</text><text x="438" y="425">Cloud storage</text><text x="340" y="105">Multiple offices</text></g>
</svg>